<mxfile host="Electron" agent="Mozilla/5.0 (Windows NT 10.0; Win64; x64) AppleWebKit/537.36 (KHTML, like Gecko) draw.io/24.7.17 Chrome/128.0.6613.36 Electron/32.0.1 Safari/537.36" version="24.7.17">
  <diagram name="Page-1" id="BAwxg1Wf_ji0lwhg9TIP">
    <mxGraphModel dx="737" dy="365" grid="1" gridSize="10" guides="1" tooltips="1" connect="1" arrows="1" fold="1" page="1" pageScale="1" pageWidth="850" pageHeight="1100" math="0" shadow="0">
      <root>
        <mxCell id="0" />
        <mxCell id="1" parent="0" />
        <mxCell id="NEq0zXXQXT2YzO8dmqF9-1" value="&lt;h1 style=&quot;margin-top: 0px;&quot;&gt;Secuencias de escape&lt;/h1&gt;&lt;p&gt;El caracter \&amp;nbsp; tiene un significado especial como prefijo, indica que el siguiente caracter va a&amp;nbsp;&lt;br&gt;denotar el código de algún caracter &quot;especial&quot;&lt;/p&gt;&lt;p&gt;&lt;br&gt;&lt;/p&gt;&lt;p&gt;Secuencias de escape&amp;nbsp;https://en.wikipedia.org/wiki/Escape_sequence&lt;/p&gt;" style="text;html=1;whiteSpace=wrap;overflow=hidden;rounded=0;" vertex="1" parent="1">
          <mxGeometry x="220" y="30" width="440" height="190" as="geometry" />
        </mxCell>
        <mxCell id="NEq0zXXQXT2YzO8dmqF9-2" value="&lt;h1 style=&quot;margin-top: 0px;&quot;&gt;Ejemplo clásico de secuencia de escape&lt;/h1&gt;&lt;p&gt;\n y \r&amp;nbsp; que se refieren a los caracteres de salto de linea (caracteres código unicode 10 o 0x0A y 13 o 0x0D respectivamente)&lt;/p&gt;&lt;p&gt;&lt;br&gt;&lt;/p&gt;&lt;p&gt;https://en.wikipedia.org/wiki/Newline&lt;br&gt;https://www.geeksforgeeks.org/difference-between-newline-and-carriage-return-in-python/&lt;br&gt;&lt;/p&gt;&lt;p&gt;&lt;br&gt;&lt;/p&gt;&lt;p&gt;En el ejemplo algunos editores o procesadores de texto (Notepad++, Word, ...) tienen la opción de mostrar &quot;marcas&quot; para denotar los caracteres especiales, en la imagen de ejemplo aprovechamos esa posibilidad para mostrar cómo son los caracteres que marcan el inicio de línea.&lt;/p&gt;&lt;p&gt;&lt;br&gt;&lt;/p&gt;&lt;p&gt;&lt;br&gt;&lt;/p&gt;&lt;p&gt;&amp;nbsp;&lt;/p&gt;" style="text;html=1;whiteSpace=wrap;overflow=hidden;rounded=0;" vertex="1" parent="1">
          <mxGeometry x="220" y="240" width="440" height="290" as="geometry" />
        </mxCell>
        <mxCell id="NEq0zXXQXT2YzO8dmqF9-3" value="" style="shape=image;verticalLabelPosition=bottom;labelBackgroundColor=default;verticalAlign=top;aspect=fixed;imageAspect=0;image=data:image/png,iVBORw0KGgoAAAANSUhEUgAAAjIAAACNCAYAAACtz5DQAAAAAXNSR0IArs4c6QAAAARnQU1BAACxjwv8YQUAAAAJcEhZcwAADsMAAA7DAcdvqGQAAChtSURBVHhe7Z3PaxtZtseP32o2A26temdPWwq8kEUmeNFIi8HGDEgOQzAmi0DjXhjpzesHEgPehaYZvDMM0uM1PIks2gSyCMaEIZFgMPEsWqIXptuLkAeRnFEzXszKrT8g4HfP/VE/pCqpJKtKP/L9wMVV5bp1Vb+/de459yz8/e9/vyYAAAAATDW/+93v6PLykn7961/rJYBZ+Oc//wkhAwAAAEw5EDDeLHz33XcQMgAAAACYSRb++Mc/QsgAAAAAYCZZuLy8nGoh8+HDBz0VDkvfLespop+/bOspxa9+taSn5o///ZToP/6lpj/9dEFNRMS//mVfcpNsGwAAwOzzb/pvpHQ6bTo/Pabj43Pq6GVgMkQtJBjT5iTbBgAAMB9EJmQ67XMpXp48eUJHRyd0dnFFV/p/AAAAAACjEIGQ6dD5sRAvJ2dSvMRiK7QSi+n/AQAAAACMTgRCZpGW723T9u4u7YqytbVGv/1M/2sWeJ2T3RGffpqj13qRmxZV7vP/F2jPc4UWtcU27ut1VEnR/b0SvXa75GhqtKfX895eQKzfPcp2krT6RZV++KEpfUqsIuZ/eFakL1aTej0mSX/+wbGOq4j1f6iK9fWqvmTpma7z7Au9KCirRfrB1aZfadKfB/4OAAAAs0YkXUuLy4tCznyMsMhJ0OePKnR2phdJGnT2tECPPmeR0dLLxsvrWkVPET39S4k8NZMXUhjU6eVBmpaX43qhRswvr+fp4H8eUjBNINZfTtPBS4gIAAAA4TARZ9+PAyVivpYCJklfPHNaN5r07Atl1Xj6KHEzy4sX7RL95an4+0VWCY6z5/S3IEqGrTAv8yTjuNoter2XovvaqsPl/v0U7VVqvqLo9Z69rlx/zwioOGX/lJVT4WFbxryLORcAAADmCQiZsHh9YL04v3hWp4N1p3UjTusHdasbZSiLSQDaf3tOZ9zl81WZ/iTbaNBf/zbI8pOlZ2yF4UkhhO5/nqBHTxtiOzZnZw16+nWGPv+84FruB1udvjUi7bPbAa04AAAAQHAgZELC6tpZLdJX62qym/WvisNZTAJRo2+/boh2H9LvhSpZTytLyNnXBz4+PorVP++R+pktqvxXMKEymCQljD/U+7dj2iYAAABgAyETCi1q/Z+aWv3DprJyeLG8SX+QSqZBzfdyyc15/YJkr9KfdBfR+p72T6lQrY+S+fe4thg5LEk3YXU1S39+dkhZ+SOEOPqL7bMDAAAAjAsImcBU6FFg34smNfUySyAM4P9a43D6NYIhS2nLChSn3/9B++P4dmHZlpN2642aGIH1AztK6OXLMmVldxr72uxE4J8Sp+xLu313qdKwwVAAAABmAwiZeaL9iv4qBIPdTaRYzj5WL/KxdmEFoUZ795WvDQAAABAGEDKBscc6cRev0OIEJfSyoJaWoJabfrz+Vvm2nH2d6LIaZWR3E3dhff1tTU65sbu2luN31MQIWFFLe6aNNB2EHq1k6Be1ZPYfAADAvAEhEwpxiv+7mjr76yv/iCRtQXE5xY5MjWpB3tZPX3g6/VqCy/KpuQFPM3S/YrZXHn6QOwAAACAgEDIhYaKF6MwRgtyFsaCYCKOb0K7sKyffZ15WIy7GclShvxiR4cCOamJfkyCj8faHrUJmfJz1AwyIBwAAIBwgZMLCYdl4+ijVNYKvGmzukbagWBFGI9Oiv/2V/VCcTr7d2E6/bCXqpUKPnF1CLzkdQZZWXQKEUxdwNFIxkPPs00cmrYMQR/+jQ80BAACAMRKBkFFJIznrtSlHZzrv9dUZHTmWczmN1Bk1TNiyYSwRDTmCr+2zYTvA8oi/Bz7i4+kjp59Hd3HkfjJdVF88cDn5drP8e51a4Kwg53t4mqFP79uj8S6vl+mlKxKIUxdwNNItucZghDgy21vO00shjAbhjHzqLYg+AgAA4AYWmVBRYsbbslGkZz9cd434Oxqqi4pH8k3rJT4IMaFG+u2DEDmfW0ktu7qgxHz7dYn27qturECI7f0X/GUAAACExMLl5eW1np5KPnz4oKfCYek7u1Pn5y/d5qBf/WpJT80f//sp0X/8S02zhSdK2LpimGTbAAAAZh8IGQgZAAAAYGZB1xIAAAAAZhYIGQAAAADMLBAyAAAAAJhZ4CPTx0dmaWl+fWTGwcJCtI6619f2pTrJtgEAAEwPEQmZDrXPf6If3/9CV1d6DBlBLLZC99bXaHlRL/AAQmY6iVpIGFhQTLJtAAAA00UkXUvt0yM6ObtwiRjm6uqCTo6e0PF5Ry8BAAAAAAhOZD4ysZVV2tjept3dXVW2N2glpv53dfaaoGUAAAAAMCyRCJnltV3aWrtLy4uOPqTFZVrbEmJGzlzR+/Y0Kpka5RYWZFfGwkJOzHnhs06rRKm+9UTNnKqXs1awt5Uq9SZ2lJjt2pUkrVJK/4bukqJUKkelWot8tqgR/6/lxLpddXMlElUDkqRktkrNZlN2w1hFzDerRcomVa4nRZKKTcc6riLWb1bF+npVX7JU1XWqg7MfuEkWqelq0680qTjwdwAAAJgUE45aWqRPtFVm+qnQCy9FUnsh/jN+GoUd8tMyw9GgRqNChUyCEixoPLfZolJK/D9TEevqRRJRt1KgTILF1oAfI4VBnerlNMXjXWkXxHw8nafy4UMhX4Ig1o+nqVyHiAAAANCfCQuZDv3idpuZTpJJ+QKu9CgZIQD2hYxJZgNYD4alQYWd0gArigfZqtui0GxStZhVAoIFTaLbQqRETEEKmKSo7rSmiLp6xypCCHUZgWzYClPPC/khaLWolktpa5QqqVSKcqWa774Yy5S1fs7sd5zyj4c1tQwL77+7fXcxxwYAAMA0Mlkh0/4HXciJGH3WL3Rp0tx5SA+VknGLgNYrei5ecsmHD+i2XjRWGgXaualZJh6ndL5M9WZRW0MqtO/cZu3AelFnq3Uqp53WFFG3XLe6bSr7XsIqS1W2wvAkd3slEpSpNIQMs2k0GlQpZCiRKLiW+8FWoANzoBO3A1pxAAAAfIxMUMh06PxHLWNW1+nuFOsYolu0qZSMSwS0Xj0XL+YkPdxM6CVjIlmkohYPjcKBr4/NUMTzZIwbjeevLEFSe6E7xkSbez7Js9N7WgQ1ntOrLiWTLO6Rqtai0k4woTKYJN02h7T5dkzbBAAAMI9MSMh0ZEj2GXcrrWzQ1nSrGEl8U/l32CKgRa+UOYY2u1xCxsFmuUpKd1Qo49unMxzpB0bJvKWmnGjRuzdyQuzGprKqeBHfVBYpISneqooWd27pWg7Lzk1IJrNUrB5SXpl4VNcdAAAA4MMEhEyHzo+P6OSCQ7I3aHvNHpBuqjEvc2OVsLqV+giAG5GmstWnk/H3TxmJN/ROqrEmvdXiwxIkA3ijKmpsy0nLKKIRSJdtn556vUx52b3FvjY7EfinxClft9t3FyMmAQAATCsRCxklYtgSE1vdpi0hYqbfFmMwjqcNei6UTO2Au1G4WykcGSNJl23/lIx/GPf8UaNcSvnaAAAAAP2IVMiY7iQpYmagO6mH9AP5hc6h0bLHI/tYd4GERzqELiaiO6QMMAm6LbuMui0t/rgtN3ZXU/zWHTUxAlbUkrV/aSqHHq1k6Be1lAkltB4AAMD4iEzIdM6PZXeSUDG0PosiRpIm5WaionKyD3y8Y12YbpxujH+Kw7HVk64upldqchQsx97sA+2gGyejP5wOwD3objSv32oJoPTezcd8EftnDQTosEYBAAAAfkQjZDrn9Fp69sZodf3uDHUn9WI5zFKW+uqY+C1SGkF1RfVi/FOMdaQPzi6mwoiRQa2SsiIJnALMdgB2hDx3obrRBB6OzXZUFfuaBBmNtz+Ngj1eTbqMAfEAAAD0JwIh06Hz12ckx71buTflYdYBEKJCOYKWtVXDD2O94ZfzjkwRYNGqUSmluy0s60h/7C6mYWhRi9vKpWjBjOGSrVLZ2aDDklLJpLpG8FWD22WMAHqsB71z4ezyUqPxNoXqcmUjIE5dwNFIxUD7YPsDCXF0aMa/AQAAAHoJX8h02vReqhjBxQk9efLEs8xjBmxbfDRkigDL9yKR0dE4ajC5YDi6mPpRyTh8PBKU4LaM0yynEehpjy0pxvLRENUdv1PUNw63POKv70/lNlP2aLxxIfbqrkggTl3A0Ui35BqDEeLIbC+ep3qA/XZGPvUWRB8BAMC8Eqmz78eHEB96mP9eC0WVmgOtOl2M4jfC6RWyRapyIkeTRqAHJWa8LSlc97prxF8PGgVKWEkmu7rSxHyrVqJcaj+486xzVGP4ywAAAPBh4fLy8lpPTyUfPnzQU+Gw9J09js3PX7b1lGJpaUlPAS/YahMlbF0xTLJtAAAA0wMsMmBk3N034RcnXv8PswAAAJhOIGQAAAAAMLNAyAAAAABgZoGQAQAAAMDMAiEDHOHW0RQnXv8PswAAAJgvIopa6lD7vE3/eP+eLq7MoDKCWIxW7q3T2rL/KHmIWgqXSb3c2YF2km0DAACYD6KxyHTa9OPZmVvEMGL+4uSInpy6BQQAAAAAQBCisch0zun0J6Lf/HaZlheN9aVD7dPXdHKhczBtb3mmL4BFJlxgkQEAADDLRGORWbxLa2t3HSKGWaTltXu0Iqev6H17/lIUTIzqV3piVPTIwzwasHjpW0XMNzlfkmv43yQVm451XEWs3wySSDJLVV1n+JGLi9R0telXkIASAADmkQk7+y7SJzE19YlL5IAbkfl2dDEjhQHnRkpTPN6VlkDMx9N5Kh8+DJjIUawfV4kkISIAAACEwWSFjJVQcoV+Y/fwgHEwiphhK4zJx9RSma9TC3bETyqVolypppND9lLLuSOEOO+SSSSZfxx2sqQWlVLu9t0loRN1AgAAmCcmJmQ67XM6PjqjK4rRysYaQceEwFBiRmXiViKmRKmEynztfPc3Gg2qFDKUSBRcy/1oVAp0UNMzidsBrTgAAABAcCIUMh06P35CT56ocnQiRExshTa2t2gNKiY8AoqZZHFPZ+JuUWknmFAZTJJuJ/Rk8+2YtgkAAADYTLZr6eqCTl6fEvx8QyaAmLlzS/vD1A7G0gWTTGapWD2kvDLxUGm/IpcDAAAA4yRCIbNId7d2aXdXle3tDVphR18WM0dCzKiVQFj0FTO25aT17o2aGIF02Y4SqtfLlE+zimFfm50I/FPilK87o5ScpUphe+gAAACYDBGN7OsHdzcd0Rk7/K5s0K5HH9PUjCMzrOPsNMOiRsOOsCxkis26tJ60SilKDKU67Lq91CiXylDFY3MsMFTbDIdfl2XXFjsMZ4Yx3nCUlXFQ9kX8jgXxO/Qctw0AAGA+mLCQEVLm/JiOWMnEVml76y51B2FjQLwxwmLMIWIYIyay1WsqKyVBC8MpCUvIWCIkW6VruTGBz/bGL2Q4ailYZBKEDAAAzA+T9ZEB0eEhYpy8eaeDqtN7Nx/zpZKhVMlsrzz8IHcAAABAQCYsZDrUVgPJgDAZIGKYRuGAVKQ0+5oEGY23P41CgnI69DpdxoB4AAAAwiEaIdM+p9PzNnU6jvCkTtv2jxGs3OvtVgJjIICIUVQoY5QHqdF4m9UsubIREKcu4GikYiDn2UomZ4ujw6KoDQAAAIyXiCwyv9DF2QkdHR1Z48g8OTqxRExsdRtjyYRBYBGjqWRoIWWPxhtPl6nuigTi1AUcjXRLrjEYIY7M9uJ5qgfoY3JGPvUWRB8BAABwE42QWfwNra7ESKdV0oj5lVXa2N6lLa+01+BmDCtiDI0CJRZSMr1AraX9XAxivlUrUS61b0UADURsbwf+MgAAAEJi4lFLg0DUUvjY0UPRwNYVwyTbBgAAMPsgagk4um6iKU68/h9mAQAAMF9AyAAAAABgZoGQAQAAAMDMAiEDAAAAgJkFQgZIh9soixOv/4dZAAAAzBcTFDJtOtVjypwi9fXEmMTL3bQ5ybYBAADMBxMTMu3TE7rQ0wAAAAAAozARIcMZr0+gYgAAAABwQ6IXMp1zes25CWKrtLqil4Epg3MqVanZbLrHYRHzTc6z5ErAlKRi07GOq4j1m0ESUGapqusMPfJvskhNV5t+BYkrAQBgHolYyHTo/PUZXVGMVteRJHIqkcKAcyqlKR6P64UaMR9P56l8+DBgAkixflwloISIAAAAEAaRCpnO+WuZKDK2uk5IrzSFsBWmnhfyQ9BqUS2XotSCHfGTSqUoV6rppJK91HLuCCHO12QSUOYfh51kqUWllLt9d0lQoaFXBQAAMDdEJ2RMl9LKBpJETiVZqrIVhidbJUolEpSpNMj57m80GlQpZCiRKLiW+9GoFOigpmcStwNacQAAAIDgRCRkTJfSCm2s2UkawfSQLO5RWk61qLQTTKgMJkm3E3qy+XZM2wQAAABsIhEypktpZWONIGOmkzu3tD9M7WAsXTDJZJaK1UPKKxMPlfYrcjkAAAAwTsIXMrpLKba6TTDGTCu25aT17o2aGIF02Y4SqtfLlE+zimFfm50I/FPilK87o5ScpUphe+gAAACYDKELmfZP3KVEdHV2JEfxdRYzlszFiV42K0P8Vr9SZVhmpd7YqFEupXxtAAAAgDCIztkXTDENettUU/Fbd9TECFhRSznj4ZumcujRSoZ+UUsZQscWAADMJwuXl5fXejpy2qfKKrOysevb7fThwwc9FQ5L39kN//yl2yK0tLSkp+YXftEzyWKT6tKhhQXBMKHKPCBeXfrCsJDJaMVgb8+93MBdPqZtNSBeWTobe63bFx73RoaMB//d3DYAAID5ABYZIGkUDkjZUdjXJMhovP1pFBJkDDPpMgbEAwAAEA4QMkBToYyzS6jO6Qiy5MpGQJy6gKORioGcZyuZnC2ODosYRwYAAMDYgZABNpUMLaTs0Xjj6TLVXZFAnLqAo5FuyTUGI8SR2V48T/UAiZSckU+9BdFHAAAA3EDIADeNAiUWUjK9QK3VlYxAzLdqJcql9oM7z4rt7ZT0doQwGjopJAAAANCHiTr7BgHOvuFjO91GA1tXDJNsGwAAwOwDiwxwdN1EU5x4/T/MAgAAYL6AkAEAAADAzAIhAwAAAICZBUIGAAAAADMLhAyYEWqUk+kGUmSCoMAsYc6fVzHjDXkxar1unCkshqnXDa7D2Wbc529c12dwvNsKrzjx+n+YJSiRCZnO+XFP0khnmZV8kQAAAMAkGOblPi5Mm5NsexCwyAAAIiBN5e4osmaQ0Z5HrQdAFOD6nAYiFzKcIHJ3t7f4JY0EAICbwznEzMtGJSgFAMwHsMjMI9Wv9MQg7P7dlF+HcatEKV7HysMEQifw+fOglpPnkwtOGQiFka9PHhk8R6lUyrpGZRHzniOJg4BwDrwqNZvNLssQ58srUtaVMC9JxaZjHVcR6zeDJAzOUlXXGXqk9mSRmq42/cpwiYYhZOaRzLdDP2wahR04L04LI5w/Q+2FnTyism/yZgEwRka5PuUHUYISmQo1Gg29UCPmG5UCZXZe4XodFikMOAdemuLxuF6oEfPxdJ7Khw8DdnWJ9eMqYfAwImIagJCZV4Z+2DSosDPKi69FtZz4our6wsqVah7bMhYg5c3fKomvM7m+7d1vLRsYVaDatb/sRJs1vwq25UlZKURdqx1dHL/Bjc/++bY1JkZ8Weyzjslm1YOr8Zxe+f7MrmPSqlHJeTwH7uOEjktg+kSTBDJVde8fWw28rulufI6L5/0wwwxzfbIVJlEQTxhBMknZqvjyd3x9N5tNqhb1NdvDqNfZsOev+xnRhWXpHGMkUkv8Rn4Oif2x9o1L0PuIrTD1vJAfAt5W13Hi7fa77mo5R5u8fs5OGJx/HHZSPGcUoVdJUKFL7/YjciFzcaKilI6PT+m83aGOXg5CYNiXoTPBYxD0V1amIr6o9CKJ+MKqFDKU6HPTvyulKFEQX2c806hQhh8y4mFhLesrrMRDJ6XatRFtZhL+XWQWfAOJulY7GteMpt/+BWrrhgx5/lqvnovfmaTiXpnUc6hBz/2VjM07cTwTGSo4j2e/fZz0cQkdfY249o+tBuKaTu3TG72khxvcDzNJoOtTXFtsheFJth7U61ROiy9/+T8FWxLSec60r1/KhpGvsxHPX6TwPSd+Iz+HxP640PvXX29nqcpWGJ7k48Tb6jpOvF153RkROQC2ih2YNhO3A1pxpoOJWWSuri7o7OSIjoSgQeR1iAR52IgHjPggkjQKBwEftnwjmhtEvDzFV5b1hVU1XvtCoKS8xEiFCkJu85fZ9XVV3JK8aJ92xAPPtazxlpr8t4vnOxmxBXEjW3294ovO+v39u8j4AVFoiK/Cov1V6N3P69g/cXxcbWm7ayTdcYHFTI0O+BMm+ZA2xdMt/UDtVJDzyQ+7SrL7ePrt45Qcl4H0RpM0A9rLaznzNaisB1Z9caEkxctBXfPd3OR+mGEGXJ+tksmUL47JYZdQ6cvo19lo528CsHWqyL4tZt/U/plnceWF/52bLO5ph3Uh2nbMdXdTknQ7oSebb6fnOAUgMiGzeHfLjlLa3qaN1RWK8T+EoDk5PodlJkwCvAw3y1o88MO2/6eAovbCfkA165QXX1kG7petmxDEhkPlO8lW5ZeZjXjA9CzzQqx3h02qZbJXFV901u8fZIVQv7ecd38VdmM9gOVXZN7dVv5Q9yEHtHjclCBiRp+P7GP9skjv6d9YoT7PQ4Xcx+7j+djzeE7VcQmFGhk3o2xVWQ8M8XRZXtf6PePmpvfDLNPn+my+1a/D7GMSt1xgRr/ORjx/kcO+KPwcYt8WvUgSp7z+CKE373xF751bulLtYKguGD+S4kOmWD3U50iII9lHPTtMxiKzuEjLd9doa3tVi5kz+glmmXAZ+DIUN5YxTVQyA8ya/NzWF7q2APQQ36SH8mHD92P37ajMom68lnkhXhR72qTqIk3m/m+89bLjKPjh1v1ATZf5S0i8yPU838ivnqunQ/Lhpkdbcbp1R031a2us9D1/5sGTpQfWTsRpU5+AQU6/lvhx4XU8p/C4jBtLkDiPpYP4LT3h5mb3wxzgeX226J3ux0lan/pBuMF1NuL5mxjaN83lA5TR15IvtuWkZQ7wCKjnnip18SGjxDf72uyMRRz1xzkcQncxH6XBmayz7+JdureiJi/+MeVKhm/SWS9mP/wQXyy2lunXn28/oMSngceDhpnll1qTzIdko5BwOKDZxXrW+H01dR/7cRSz3W5ar4if+7a5WRHPa6tKX6dffxK39ZvXYgzHZcqxXgzJ2xT81TuG+6H7XM9iMftxY0a/zkY7f5OBnXMXtG9a6LohEDUP38MZ4fLy8nqS5fun31x/840oT7/3/H+73Q61XH8jBKAuPf+bN179p54wVK/Fi+5avAGvm3qJtYxLtnp93Sxei9eZmrZoXheTjnV8EKKoax2z7ayYMgy7LHldtH+si972DPY+9fm5Duz1BxbXsQuZnvOnsPa7XxnhmPifvwAlyHEx15brPAdgxHrNYlL9tj4XgbWO7+/3ug5HvR/mDI/rc7R9Hv06G+38MQPuh2pWtxngmgtwfVq/U/yObLF63Ww6foxpy2MfVB3Hb7R+V9Bi77fnufHZHmPP2/sV6NnjLNY+Oe6ZASUIk7XIUIc6v+hJEC78pcTm34F0dTG9UpNu7K9L/y/vUc3KozLO9hJkjBHJou0s6Fm6Iy3Cwvf82T4Bfam86GNh88LreE7hcQkLH0dzb6bxfogYn+vTsupV9odwAB/DdTbU+YsaR9dZ8VD7yQx3t1jdk5Yv3A0Qz3krAsxhlZ8lJitkOm16f6UmY58sqgkwfgKLGI2zi6ng7RFvomJ8uy10dwdjOaaNCc+eqrG25+gGeD4Fg3T1OX/GKVJ8VHk/6DkKQj7oKrQ/TCiRdTyT9NBy+piy4xICcVuRkJcrix2F42aS98PE6XN9Wt2b4ilSSOQo2DBDo19no56/vnB480C/lWGwu85GvRbsaET2NakGGI23P9yFZ/wi02UMiOdDh9rn59Tu2LFJnfY5HR+dkdIxK3TvLoRMKAwrYjR2FJAP6QeOB1SKSo4nVKvG4xrYoZN7Xk53I8NjLHQN9NRyh2qOo730nh1lkkjl5P65nostHm69RDke/0YvCoW+58982fk4Nkpsp1+/l0Ilwykquo7njjmebufVqTkuYeG8rnd42Hw5I/eLfRoSfl6QE7sfJszA54vDwiskREYcGzkwnfuiEceInV7F8dZLRr7ORj1/DiuQ0zleplSwwurHhbst+1LRA+QZ0dTXquSMLuUIKE5HkOWIbgecuoCjkYJFatl+kUIcHerjPyNEZpHpvD+jk6MjORgel6MTI2JitLq9RsgZGQIjihiF8wHkhfi/leVVPDQytlNeImNu/CxVQ+hiSCbNAGPa+S/B48owor3DMbUXz1OdHww83ajI/bPak23ycOsFqrx5J1cPhUHnz3zlZx+Is+FPfFMPUe4T+psUT79G9/GUJ9Dj/E3DcQkVx3UvjlcmYe8Xv1+yVT+BP7n7YWIEfb6ky46M0A01MJ05rrLwNcNOr2/lGpKRr7NRz58t+KV40u3IlAo8xpLZ5lhwjJzr/I08+F+Bf2RW/0YhVni5JVi6EMdxwRqXiNMR8KCCTmsspy7gaKSgkVqOcY708R+EM/KptwwffTQqEQmZRVr+bIViMtbaEKPYygZt724RjDEhcCMRoxnUX8oXOw8vnhXKXy+SiBejHOgpjCzD4ov2UHx9dA9pnszyoFmivXG+JfjBIAfg6v7SUS//bFG0OS7h1E2A81c74BekCkfvizhP5rnpNcjWncd19TWn5xk+nr7nb5LHJQr0i9dlrpcDBvK4JHrei0ncD5Ni2OcLHxtxzfQmMRSIeXX/uqPuRr7ORjx/8by4D1zPFZ2MkcdY0kvGhviN6ljoeYEay6UpxQeLMfMv/msZbbqRooutXB5JN43VKjVEd5rYnjW6u/iNY9VvIbLAkUF6eir58OGDngqHpe9sW9DPX7pDwJeWlvQUAPNGjXILypLF/jWBhvABAEwctt5ECVtXDJNsux8TjloCAAAAQFDc3TfhFyde/w+zBAVCBgAAAAAzC4QMAAAAAGYWCBkAPkrSVnZo+McAAGYZCBkAAAAgYlTIdXTFidf/wyxhE7mQ6XTadHp8bI0n8+TJMR2fntN52x4sDwAAwLygB3pLpVwvt1Rq0Ei/81uP/x81ps1Jth0WkYZfd86P6ehM5yToJrZK21t3qXtIGYRfAwDA7FLLObJVe8D5lOr53lGH5rneJMQEw13Jk2w7LCKzyDhFTGyVB8LbpV1Ztml7Y5VWPpH/AgAAMGeoAe8cCSCbdn6gRmHHN6HkvNcD4yEiIdOmn7SIWdnYpq27yw7LyyItLt+ltbVeawwYER51c57B/oFpBtenCx7Gvl7OU9qZ4TmepjInO5QzDXrukWlz3uv1okcSdgoiKYq8RkROUrHpWMdVxPoOIeVPlqq6ztAj+CZ55O/udr1KNAkoIxEynfMf6YInYqv022XIldDhocPn+WGK/QPTDK7PgNjJE4djDutJYcC5kdIUdwoiRszH03kqH+qcaQMR60shNXtZrEclAiHTofZ73aX0mdMSA0Il4MOmVbId1Lxzk/FQ9r3/j7peD3hZCFpUSqlj5ZtYjmmVKMXrWAnmZqXeDIPrMwBNejtSWuk5qyfzOemcUTpLt7wPdGEnYle2/y7YR8esK9fPmfvHkZwyNBz3tmdJkG/C8TESiZD5ReqYGH3G1pjuqKXjU0LAUkgEeNjE84eWaq9kUj19ubWcysfDDmvO8UairufJR/+ycDyoKvu+/fAquaR4Xj42CfZmpd6MAzHTn9oLncwwSQ83hzjjc1UvS1W2wvAkC3mZpbsh7wNDo6Gz/SfU/TGIRsWR5T5xW7Q+/4QvZDpCyOhJ6pzT8dEJXVw5IpeuLujk6AmdugOGwLgI8jJ09OUWdhxfw7Wc8sbnjNM93vpR1/PhY39ZpPe0MBTH0np6ORAPx319TF1Jsmel3qwDMeOD+JKXJ5xP+SEFvd3nrV6yaDJ+i/V3ggmVwSTpdkJPNt+OaZvTTUTOvswVnZ2csbevHbG0vUGrMfXfi5NTgpYJiYEPmzSVm0Wl3DktvDT/1yinVAUVD/2+kKOu58NH/bKI0+ZDeSSJKi/EUXRjrBzJh5tdx3RW6s0BEDNdcPeJ7nLIVj1Dmr2Zv3p3bun/1Q7U+jckmcxSsWqEky2m5p0IhYwgtkrraw4/mcVluru1QSty5oJ+PEcfU2gMetjE83Ro9/lQKmW6eAZ8hURdz4+P+GURzz/WFq4K7Tv7bYyVQ/z3scdBnZV6cwHEjEa8XFPcfSLudfGSbw7sPzbMYz3bctJ690ZNjABHTZkooXq9TPk030MspnbGIo76wxZ2Z5SSsxjLe/iEPyCe7E46I+5Miq1y6HWvu2/79AmdcFjTygbtCqHjZGoGxJunhxA/dHxwDe6ULNpOaAOIrF6Q8+C1f3N+/tiJOqE+Aal6XZbmarPMbyAvZlbqzf3991E8X9RLnk9/33Pdw/zVY0dYsRYVm3X54WbfF0Gx6/ZSoxx/GHpsjgWGapux78FBg/r1EOgZz4Eb6gOV4bZDg4VMuOX766fffHP9jShPv/f6/+X1m5f/Lf//zdPve/7XbrdDLdffiOOrS8//5o1X/6kn/GheF5PEV5su2euq/k9/oq7nw8D9m3H67V+zeJ3UxzErD2L1WnwNDT6ms1JvHviYr09BNavOu3jJ6yXBmMd6vB4XdQ8IqllrWbCSvDbNmHbJ2pjAZ3uMPW/fc9Y2gpZkUTy9me5nuH8Jkwi6lhbpE+0H80vHu+uoo8KaQJjwF18fSwzTKmlTZDKp/FeEls70C5fVRF3PkwD7N9MM2r94nuzAoBKVSvvqSyj7QH5x+TIr9Wadj/z6ZIuD/OIXX/KBHfkF817vzTvdxWo5w98A7qI3Xbbp8vCD3M0wkQiZ5c+Ukrk6+8nDobdN/5Cj5RGt/MbdrQTGRJCHaC1nm/zrdaqbu8B5c3gRdT0vPnYRo0nv2Q7UBaUQqRggBGhW6s0sH/v12SrRjjnPwzjyz3s9QaNwoB3fdTTnDcVMo5Cwxt9KlzEg3lhZvHvPcug9OT53jBvTofPjE8eov3IhGCeBHqKOiKGm6jN1Knr/XCFR1/MAIsYmvkkmMEiSfRzMcXpW6s0iH/312bLDioc6z/Nez+C0QqvReJviQZh0CRBOXcDRSEXx2TeYSiZni6ND/dEw50QUtbRMa9urJO0yV2dy3Bg1IN4RqRRMMVpdR66lsRPoISpuRJ+IIVvRN6iQMDeHIep6HkDEdCEeXKbfRpB9ENTKMSv1Zgxcn+J2f0XP5VteUMk4Rnx1lx4r7LzXc8L1rNGsOR1BmequSCBOXcDRSLfkGoMR4shsL563rd19cEY+9Zbooo9GJbrw68W7tMXjxqyobiZFjGIrq7SxvUUewUzgJgR8iFp+Klmv8Q6cit7tvxJ1vR7wkvDGjOSZHHJguVmpNyvg+gTDwONpLaRkeoFaq1sstahVK1Eupf3JgiC2t2PE00fgLxN++PUNmZrw63lEfCkIua1nBNM+D9x4HK+aeGBxr122ek3lTPDjy+GXaVEvx/WMsOizviTs9gCYY9hSEyVsXTFMsu0wiM4iA6YPvrjMBW1eItM6D3rpOl61YlKKA7ZyWKLC73g65mullKy3YOp1/d9vPvT2AJhj3N034RcnXv8Ps4QNLDIfs0XGYF4ihmmbB/7UctIkIo6YhTxyg45vNUsL0uFarc/1pVWFrSP9zkfU7QEAwABgkQG9L41pmwd9YVHAyDwrTXHshjy+KV3P6uIZsH7U7QEAgD9E/w9LIu4Ftn0j3AAAAABJRU5ErkJggg==;" vertex="1" parent="1">
          <mxGeometry x="240" y="755" width="562" height="141" as="geometry" />
        </mxCell>
        <mxCell id="NEq0zXXQXT2YzO8dmqF9-5" value="" style="ellipse;whiteSpace=wrap;html=1;aspect=fixed;fillColor=none;strokeColor=#CC0000;strokeWidth=3;" vertex="1" parent="1">
          <mxGeometry x="367" y="750" width="30" height="30" as="geometry" />
        </mxCell>
        <mxCell id="NEq0zXXQXT2YzO8dmqF9-7" value="CR = Carriage Return" style="shape=note2;boundedLbl=1;whiteSpace=wrap;html=1;size=25;verticalAlign=top;align=center;fillColor=#fff2cc;strokeColor=#d6b656;" vertex="1" parent="1">
          <mxGeometry x="335" y="610" width="120" height="60" as="geometry" />
        </mxCell>
        <mxCell id="NEq0zXXQXT2YzO8dmqF9-8" value="" style="endArrow=classic;html=1;rounded=0;exitX=0.5;exitY=1;exitDx=0;exitDy=0;exitPerimeter=0;entryX=0.5;entryY=0;entryDx=0;entryDy=0;strokeWidth=3;strokeColor=#CC0000;" edge="1" parent="1" source="NEq0zXXQXT2YzO8dmqF9-7" target="NEq0zXXQXT2YzO8dmqF9-5">
          <mxGeometry width="50" height="50" relative="1" as="geometry">
            <mxPoint x="590" y="720" as="sourcePoint" />
            <mxPoint x="640" y="670" as="targetPoint" />
          </mxGeometry>
        </mxCell>
        <mxCell id="NEq0zXXQXT2YzO8dmqF9-9" value="" style="endArrow=classic;html=1;rounded=0;entryX=1;entryY=0;entryDx=0;entryDy=0;strokeWidth=3;strokeColor=#CC0000;exitX=0.5;exitY=1;exitDx=0;exitDy=0;exitPerimeter=0;" edge="1" source="NEq0zXXQXT2YzO8dmqF9-17" parent="1" target="NEq0zXXQXT2YzO8dmqF9-11">
          <mxGeometry width="50" height="50" relative="1" as="geometry">
            <mxPoint x="500" y="648.9677124023438" as="sourcePoint" />
            <mxPoint x="502" y="755" as="targetPoint" />
          </mxGeometry>
        </mxCell>
        <mxCell id="NEq0zXXQXT2YzO8dmqF9-10" value="TAB = tabulador (código 9 o 0x09) indica una &quot;tabulación&quot; o varios espacios a la vez, la cantidad de espacios que se ven en el editor o &quot;tabulación virtual&quot; suele ser configurable en editores (lo usual por defecto es que un tabulador tenga 4 espacios)&amp;nbsp;" style="shape=note2;boundedLbl=1;whiteSpace=wrap;html=1;size=25;verticalAlign=top;align=center;fillColor=#fff2cc;strokeColor=#d6b656;" vertex="1" parent="1">
          <mxGeometry x="310" y="980" width="320" height="130" as="geometry" />
        </mxCell>
        <mxCell id="NEq0zXXQXT2YzO8dmqF9-11" value="" style="ellipse;whiteSpace=wrap;html=1;aspect=fixed;fillColor=none;strokeColor=#CC0000;strokeWidth=3;" vertex="1" parent="1">
          <mxGeometry x="397" y="755" width="30" height="30" as="geometry" />
        </mxCell>
        <mxCell id="NEq0zXXQXT2YzO8dmqF9-12" value="" style="shape=curlyBracket;whiteSpace=wrap;html=1;rounded=1;labelPosition=left;verticalLabelPosition=middle;align=right;verticalAlign=middle;rotation=90;" vertex="1" parent="1">
          <mxGeometry x="452" y="450" width="20" height="280" as="geometry" />
        </mxCell>
        <mxCell id="NEq0zXXQXT2YzO8dmqF9-13" value="Caso Windows estos dos caracteres marcan el inicio de una línea" style="text;html=1;align=center;verticalAlign=middle;whiteSpace=wrap;rounded=0;" vertex="1" parent="1">
          <mxGeometry x="260" y="550" width="350" height="30" as="geometry" />
        </mxCell>
        <mxCell id="NEq0zXXQXT2YzO8dmqF9-14" value="" style="ellipse;whiteSpace=wrap;html=1;aspect=fixed;fillColor=none;strokeColor=#CC0000;strokeWidth=3;" vertex="1" parent="1">
          <mxGeometry x="310" y="830" width="60" height="60" as="geometry" />
        </mxCell>
        <mxCell id="NEq0zXXQXT2YzO8dmqF9-15" value="" style="endArrow=classic;html=1;rounded=0;entryX=0.5;entryY=1;entryDx=0;entryDy=0;strokeWidth=3;strokeColor=#CC0000;exitX=0;exitY=0;exitDx=47.5;exitDy=0;exitPerimeter=0;" edge="1" parent="1" source="NEq0zXXQXT2YzO8dmqF9-10" target="NEq0zXXQXT2YzO8dmqF9-14">
          <mxGeometry width="50" height="50" relative="1" as="geometry">
            <mxPoint x="350" y="950" as="sourcePoint" />
            <mxPoint x="374" y="1019" as="targetPoint" />
          </mxGeometry>
        </mxCell>
        <mxCell id="NEq0zXXQXT2YzO8dmqF9-17" value="LF = Line Feed o New Line" style="shape=note2;boundedLbl=1;whiteSpace=wrap;html=1;size=25;verticalAlign=top;align=center;fillColor=#fff2cc;strokeColor=#d6b656;" vertex="1" parent="1">
          <mxGeometry x="480" y="610" width="120" height="60" as="geometry" />
        </mxCell>
      </root>
    </mxGraphModel>
  </diagram>
</mxfile>
